{
    "asset" : {
        "generator" : "Khronos glTF Blender I/O v3.3.32",
        "version" : "2.0"
    },
    "scene" : 0,
    "scenes" : [
        {
            "name" : "Scene",
            "nodes" : [
                0
            ]
        }
    ],
    "nodes" : [
        {
            "mesh" : 0,
            "name" : "3D.Black.Bishop.001",
            "scale" : [
                0.650130033493042,
                0.7084195017814636,
                0.650130033493042
            ],
            "translation" : [
                -3.763373851776123,
                -0.00014851405285298824,
                -8.621786117553711
            ]
        }
    ],
    "materials" : [
        {
            "doubleSided" : true,
            "name" : "Outside Black",
            "pbrMetallicRoughness" : {}
        },
        {
            "doubleSided" : true,
            "name" : "Inside Black",
            "pbrMetallicRoughness" : {}
        }
    ],
    "meshes" : [
        {
            "name" : "BezierCurve.012",
            "primitives" : [
                {
                    "attributes" : {
                        "POSITION" : 0,
                        "NORMAL" : 1,
                        "TEXCOORD_0" : 2
                    },
                    "indices" : 3,
                    "material" : 0
                },
                {
                    "attributes" : {
                        "POSITION" : 4,
                        "NORMAL" : 5,
                        "TEXCOORD_0" : 6
                    },
                    "indices" : 7,
                    "material" : 1
                }
            ]
        }
    ],
    "accessors" : [
        {
            "bufferView" : 0,
            "componentType" : 5126,
            "count" : 3803,
            "max" : [
                1.523856520652771,
                6.5001220703125,
                1.429561734199524
            ],
            "min" : [
                -1.5302784442901611,
                -0.015497641637921333,
                -1.850805640220642
            ],
            "type" : "VEC3"
        },
        {
            "bufferView" : 1,
            "componentType" : 5126,
            "count" : 3803,
            "type" : "VEC3"
        },
        {
            "bufferView" : 2,
            "componentType" : 5126,
            "count" : 3803,
            "type" : "VEC2"
        },
        {
            "bufferView" : 3,
            "componentType" : 5123,
            "count" : 15021,
            "type" : "SCALAR"
        },
        {
            "bufferView" : 4,
            "componentType" : 5126,
            "count" : 2558,
            "max" : [
                1.523856520652771,
                6.5001220703125,
                1.429561734199524
            ],
            "min" : [
                -1.5302784442901611,
                -0.015497641637921333,
                -1.850805640220642
            ],
            "type" : "VEC3"
        },
        {
            "bufferView" : 5,
            "componentType" : 5126,
            "count" : 2558,
            "type" : "VEC3"
        },
        {
            "bufferView" : 6,
            "componentType" : 5126,
            "count" : 2558,
            "type" : "VEC2"
        },
        {
            "bufferView" : 7,
            "componentType" : 5123,
            "count" : 7269,
            "type" : "SCALAR"
        }
    ],
    "bufferViews" : [
        {
            "buffer" : 0,
            "byteLength" : 45636,
            "byteOffset" : 0,
            "target" : 34962
        },
        {
            "buffer" : 0,
            "byteLength" : 45636,
            "byteOffset" : 45636,
            "target" : 34962
        },
        {
            "buffer" : 0,
            "byteLength" : 30424,
            "byteOffset" : 91272,
            "target" : 34962
        },
        {
            "buffer" : 0,
            "byteLength" : 30042,
            "byteOffset" : 121696,
            "target" : 34963
        },
        {
            "buffer" : 0,
            "byteLength" : 30696,
            "byteOffset" : 151740,
            "target" : 34962
        },
        {
            "buffer" : 0,
            "byteLength" : 30696,
            "byteOffset" : 182436,
            "target" : 34962
        },
        {
            "buffer" : 0,
            "byteLength" : 20464,
            "byteOffset" : 213132,
            "target" : 34962
        },
        {
            "buffer" : 0,
            "byteLength" : 14538,
            "byteOffset" : 233596,
            "target" : 34963
        }
    ],
    "buffers" : [
        {
            "byteLength" : 248136,
            "uri" : "data:application/octet-stream;base64,"
        }
    ]
}
