{
    "asset" : {
        "generator" : "Khronos glTF Blender I/O v3.3.32",
        "version" : "2.0"
    },
    "scene" : 0,
    "scenes" : [
        {
            "name" : "Scene",
            "nodes" : [
                0
            ]
        }
    ],
    "nodes" : [
        {
            "mesh" : 0,
            "name" : "3D.Black.Knight.001",
            "rotation" : [
                0,
                -1,
                0,
                7.549790126404332e-08
            ],
            "scale" : [
                0.6070224642753601,
                0.6070224642753601,
                0.6070224642753601
            ],
            "translation" : [
                -6.179772853851318,
                -0.0023134788498282433,
                -8.66784381866455
            ]
        }
    ],
    "materials" : [
        {
            "doubleSided" : true,
            "name" : "Outside Black",
            "pbrMetallicRoughness" : {}
        },
        {
            "doubleSided" : true,
            "name" : "Inside Black",
            "pbrMetallicRoughness" : {}
        }
    ],
    "meshes" : [
        {
            "name" : "Mesh.003",
            "primitives" : [
                {
                    "attributes" : {
                        "POSITION" : 0,
                        "NORMAL" : 1,
                        "TEXCOORD_0" : 2
                    },
                    "indices" : 3,
                    "material" : 0
                },
                {
                    "attributes" : {
                        "POSITION" : 4,
                        "NORMAL" : 5,
                        "TEXCOORD_0" : 6
                    },
                    "indices" : 7,
                    "material" : 1
                }
            ]
        }
    ],
    "accessors" : [
        {
            "bufferView" : 0,
            "componentType" : 5126,
            "count" : 11957,
            "max" : [
                1.7207534313201904,
                6.3976359367370605,
                1.6082428693771362
            ],
            "min" : [
                -1.3130205869674683,
                -0.012441635131835938,
                -1.3649563789367676
            ],
            "type" : "VEC3"
        },
        {
            "bufferView" : 1,
            "componentType" : 5126,
            "count" : 11957,
            "type" : "VEC3"
        },
        {
            "bufferView" : 2,
            "componentType" : 5126,
            "count" : 11957,
            "type" : "VEC2"
        },
        {
            "bufferView" : 3,
            "componentType" : 5123,
            "count" : 63303,
            "type" : "SCALAR"
        },
        {
            "bufferView" : 4,
            "componentType" : 5126,
            "count" : 2692,
            "max" : [
                1.7207534313201904,
                6.3943400382995605,
                1.6082428693771362
            ],
            "min" : [
                -1.3130205869674683,
                -0.012441635131835938,
                -1.3649563789367676
            ],
            "type" : "VEC3"
        },
        {
            "bufferView" : 5,
            "componentType" : 5126,
            "count" : 2692,
            "type" : "VEC3"
        },
        {
            "bufferView" : 6,
            "componentType" : 5126,
            "count" : 2692,
            "type" : "VEC2"
        },
        {
            "bufferView" : 7,
            "componentType" : 5123,
            "count" : 6711,
            "type" : "SCALAR"
        }
    ],
    "bufferViews" : [
        {
            "buffer" : 0,
            "byteLength" : 143484,
            "byteOffset" : 0,
            "target" : 34962
        },
        {
            "buffer" : 0,
            "byteLength" : 143484,
            "byteOffset" : 143484,
            "target" : 34962
        },
        {
            "buffer" : 0,
            "byteLength" : 95656,
            "byteOffset" : 286968,
            "target" : 34962
        },
        {
            "buffer" : 0,
            "byteLength" : 126606,
            "byteOffset" : 382624,
            "target" : 34963
        },
        {
            "buffer" : 0,
            "byteLength" : 32304,
            "byteOffset" : 509232,
            "target" : 34962
        },
        {
            "buffer" : 0,
            "byteLength" : 32304,
            "byteOffset" : 541536,
            "target" : 34962
        },
        {
            "buffer" : 0,
            "byteLength" : 21536,
            "byteOffset" : 573840,
            "target" : 34962
        },
        {
            "buffer" : 0,
            "byteLength" : 13422,
            "byteOffset" : 595376,
            "target" : 34963
        }
    ],
    "buffers" : [
        {
            "byteLength" : 608800,
            "uri" : "data:application/octet-stream;base64,"
        }
    ]
}
