{
    "asset" : {
        "generator" : "Khronos glTF Blender I/O v3.3.32",
        "version" : "2.0"
    },
    "scene" : 0,
    "scenes" : [
        {
            "name" : "Scene",
            "nodes" : [
                0
            ]
        }
    ],
    "nodes" : [
        {
            "mesh" : 0,
            "name" : "3D.Black.Queen",
            "scale" : [
                0.5872240662574768,
                0.7084195017814636,
                0.5872240662574768
            ],
            "translation" : [
                -1.2774658203125,
                -0.00014851405285298824,
                -8.877918243408203
            ]
        }
    ],
    "materials" : [
        {
            "doubleSided" : true,
            "name" : "Outside Black",
            "pbrMetallicRoughness" : {}
        },
        {
            "doubleSided" : true,
            "name" : "Inside Black",
            "pbrMetallicRoughness" : {}
        }
    ],
    "meshes" : [
        {
            "name" : "BezierCurve.013",
            "primitives" : [
                {
                    "attributes" : {
                        "POSITION" : 0,
                        "NORMAL" : 1,
                        "TEXCOORD_0" : 2
                    },
                    "indices" : 3,
                    "material" : 0
                },
                {
                    "attributes" : {
                        "POSITION" : 4,
                        "NORMAL" : 5,
                        "TEXCOORD_0" : 6
                    },
                    "indices" : 7,
                    "material" : 1
                }
            ]
        }
    ],
    "accessors" : [
        {
            "bufferView" : 0,
            "componentType" : 5126,
            "count" : 6789,
            "max" : [
                1.809939980506897,
                7.387853622436523,
                1.8051445484161377
            ],
            "min" : [
                -1.8113983869552612,
                -0.015497645363211632,
                -1.5657269954681396
            ],
            "type" : "VEC3"
        },
        {
            "bufferView" : 1,
            "componentType" : 5126,
            "count" : 6789,
            "type" : "VEC3"
        },
        {
            "bufferView" : 2,
            "componentType" : 5126,
            "count" : 6789,
            "type" : "VEC2"
        },
        {
            "bufferView" : 3,
            "componentType" : 5123,
            "count" : 22044,
            "type" : "SCALAR"
        },
        {
            "bufferView" : 4,
            "componentType" : 5126,
            "count" : 7196,
            "max" : [
                1.809939980506897,
                7.387853622436523,
                1.8051445484161377
            ],
            "min" : [
                -1.8113983869552612,
                -0.015497645363211632,
                -1.5657269954681396
            ],
            "type" : "VEC3"
        },
        {
            "bufferView" : 5,
            "componentType" : 5126,
            "count" : 7196,
            "type" : "VEC3"
        },
        {
            "bufferView" : 6,
            "componentType" : 5126,
            "count" : 7196,
            "type" : "VEC2"
        },
        {
            "bufferView" : 7,
            "componentType" : 5123,
            "count" : 14340,
            "type" : "SCALAR"
        }
    ],
    "bufferViews" : [
        {
            "buffer" : 0,
            "byteLength" : 81468,
            "byteOffset" : 0,
            "target" : 34962
        },
        {
            "buffer" : 0,
            "byteLength" : 81468,
            "byteOffset" : 81468,
            "target" : 34962
        },
        {
            "buffer" : 0,
            "byteLength" : 54312,
            "byteOffset" : 162936,
            "target" : 34962
        },
        {
            "buffer" : 0,
            "byteLength" : 44088,
            "byteOffset" : 217248,
            "target" : 34963
        },
        {
            "buffer" : 0,
            "byteLength" : 86352,
            "byteOffset" : 261336,
            "target" : 34962
        },
        {
            "buffer" : 0,
            "byteLength" : 86352,
            "byteOffset" : 347688,
            "target" : 34962
        },
        {
            "buffer" : 0,
            "byteLength" : 57568,
            "byteOffset" : 434040,
            "target" : 34962
        },
        {
            "buffer" : 0,
            "byteLength" : 28680,
            "byteOffset" : 491608,
            "target" : 34963
        }
    ],
    "buffers" : [
        {
            "byteLength" : 520288,
            "uri" : "data:application/octet-stream;base64,"
        }
    ]
}
