{
    "asset" : {
        "generator" : "Khronos glTF Blender I/O v3.3.32",
        "version" : "2.0"
    },
    "scene" : 0,
    "scenes" : [
        {
            "name" : "Scene",
            "nodes" : [
                0
            ]
        }
    ],
    "nodes" : [
        {
            "mesh" : 0,
            "name" : "3D.Black.Pawn.002",
            "scale" : [
                0.6906354427337646,
                0.7084195017814636,
                0.6906354427337646
            ],
            "translation" : [
                -6.273922920227051,
                -0.00014851405285298824,
                -6.1761064529418945
            ]
        }
    ],
    "materials" : [
        {
            "doubleSided" : true,
            "name" : "Outside Black",
            "pbrMetallicRoughness" : {}
        },
        {
            "doubleSided" : true,
            "name" : "Inside Black",
            "pbrMetallicRoughness" : {}
        }
    ],
    "meshes" : [
        {
            "name" : "BezierCurve.037",
            "primitives" : [
                {
                    "attributes" : {
                        "POSITION" : 0,
                        "NORMAL" : 1,
                        "TEXCOORD_0" : 2
                    },
                    "indices" : 3,
                    "material" : 0
                },
                {
                    "attributes" : {
                        "POSITION" : 4,
                        "NORMAL" : 5,
                        "TEXCOORD_0" : 6
                    },
                    "indices" : 7,
                    "material" : 1
                }
            ]
        }
    ],
    "accessors" : [
        {
            "bufferView" : 0,
            "componentType" : 5126,
            "count" : 2266,
            "max" : [
                0.9422045946121216,
                4.409176826477051,
                1.1198621988296509
            ],
            "min" : [
                -0.9611600041389465,
                -0.015497684478759766,
                -1.488944411277771
            ],
            "type" : "VEC3"
        },
        {
            "bufferView" : 1,
            "componentType" : 5126,
            "count" : 2266,
            "type" : "VEC3"
        },
        {
            "bufferView" : 2,
            "componentType" : 5126,
            "count" : 2266,
            "type" : "VEC2"
        },
        {
            "bufferView" : 3,
            "componentType" : 5123,
            "count" : 9966,
            "type" : "SCALAR"
        },
        {
            "bufferView" : 4,
            "componentType" : 5126,
            "count" : 963,
            "max" : [
                0.9422045946121216,
                4.379225730895996,
                1.1198621988296509
            ],
            "min" : [
                -0.9611600041389465,
                -0.015497684478759766,
                -1.488944411277771
            ],
            "type" : "VEC3"
        },
        {
            "bufferView" : 5,
            "componentType" : 5126,
            "count" : 963,
            "type" : "VEC3"
        },
        {
            "bufferView" : 6,
            "componentType" : 5126,
            "count" : 963,
            "type" : "VEC2"
        },
        {
            "bufferView" : 7,
            "componentType" : 5123,
            "count" : 2214,
            "type" : "SCALAR"
        }
    ],
    "bufferViews" : [
        {
            "buffer" : 0,
            "byteLength" : 27192,
            "byteOffset" : 0,
            "target" : 34962
        },
        {
            "buffer" : 0,
            "byteLength" : 27192,
            "byteOffset" : 27192,
            "target" : 34962
        },
        {
            "buffer" : 0,
            "byteLength" : 18128,
            "byteOffset" : 54384,
            "target" : 34962
        },
        {
            "buffer" : 0,
            "byteLength" : 19932,
            "byteOffset" : 72512,
            "target" : 34963
        },
        {
            "buffer" : 0,
            "byteLength" : 11556,
            "byteOffset" : 92444,
            "target" : 34962
        },
        {
            "buffer" : 0,
            "byteLength" : 11556,
            "byteOffset" : 104000,
            "target" : 34962
        },
        {
            "buffer" : 0,
            "byteLength" : 7704,
            "byteOffset" : 115556,
            "target" : 34962
        },
        {
            "buffer" : 0,
            "byteLength" : 4428,
            "byteOffset" : 123260,
            "target" : 34963
        }
    ],
    "buffers" : [
        {
            "byteLength" : 127688,
            "uri" : "data:application/octet-stream;base64,"
        }
    ]
}
