{
    "asset" : {
        "generator" : "Khronos glTF Blender I/O v3.3.32",
        "version" : "2.0"
    },
    "scene" : 0,
    "scenes" : [
        {
            "name" : "Scene",
            "nodes" : [
                0
            ]
        }
    ],
    "nodes" : [
        {
            "mesh" : 0,
            "name" : "3D.Black.King",
            "scale" : [
                0.5207964777946472,
                0.7084195017814636,
                0.5207964777946472
            ],
            "translation" : [
                1.2312774658203125,
                -0.00014851405285298824,
                -8.691112518310547
            ]
        }
    ],
    "materials" : [
        {
            "doubleSided" : true,
            "name" : "Outside Black",
            "pbrMetallicRoughness" : {}
        },
        {
            "doubleSided" : true,
            "name" : "Inside Black",
            "pbrMetallicRoughness" : {}
        }
    ],
    "meshes" : [
        {
            "name" : "BezierCurve.014",
            "primitives" : [
                {
                    "attributes" : {
                        "POSITION" : 0,
                        "NORMAL" : 1,
                        "TEXCOORD_0" : 2
                    },
                    "indices" : 3,
                    "material" : 0
                },
                {
                    "attributes" : {
                        "POSITION" : 4,
                        "NORMAL" : 5,
                        "TEXCOORD_0" : 6
                    },
                    "indices" : 7,
                    "material" : 1
                }
            ]
        }
    ],
    "accessors" : [
        {
            "bufferView" : 0,
            "componentType" : 5126,
            "count" : 5121,
            "max" : [
                1.7764396667480469,
                8.078720092773438,
                1.8467410802841187
            ],
            "min" : [
                -1.7949235439300537,
                -0.015497645363211632,
                -2.012921094894409
            ],
            "type" : "VEC3"
        },
        {
            "bufferView" : 1,
            "componentType" : 5126,
            "count" : 5121,
            "type" : "VEC3"
        },
        {
            "bufferView" : 2,
            "componentType" : 5126,
            "count" : 5121,
            "type" : "VEC2"
        },
        {
            "bufferView" : 3,
            "componentType" : 5123,
            "count" : 17388,
            "type" : "SCALAR"
        },
        {
            "bufferView" : 4,
            "componentType" : 5126,
            "count" : 4153,
            "max" : [
                1.7764396667480469,
                8.077545166015625,
                1.8467410802841187
            ],
            "min" : [
                -1.7949235439300537,
                -0.015497645363211632,
                -2.012921094894409
            ],
            "type" : "VEC3"
        },
        {
            "bufferView" : 5,
            "componentType" : 5126,
            "count" : 4153,
            "type" : "VEC3"
        },
        {
            "bufferView" : 6,
            "componentType" : 5126,
            "count" : 4153,
            "type" : "VEC2"
        },
        {
            "bufferView" : 7,
            "componentType" : 5123,
            "count" : 8934,
            "type" : "SCALAR"
        }
    ],
    "bufferViews" : [
        {
            "buffer" : 0,
            "byteLength" : 61452,
            "byteOffset" : 0,
            "target" : 34962
        },
        {
            "buffer" : 0,
            "byteLength" : 61452,
            "byteOffset" : 61452,
            "target" : 34962
        },
        {
            "buffer" : 0,
            "byteLength" : 40968,
            "byteOffset" : 122904,
            "target" : 34962
        },
        {
            "buffer" : 0,
            "byteLength" : 34776,
            "byteOffset" : 163872,
            "target" : 34963
        },
        {
            "buffer" : 0,
            "byteLength" : 49836,
            "byteOffset" : 198648,
            "target" : 34962
        },
        {
            "buffer" : 0,
            "byteLength" : 49836,
            "byteOffset" : 248484,
            "target" : 34962
        },
        {
            "buffer" : 0,
            "byteLength" : 33224,
            "byteOffset" : 298320,
            "target" : 34962
        },
        {
            "buffer" : 0,
            "byteLength" : 17868,
            "byteOffset" : 331544,
            "target" : 34963
        }
    ],
    "buffers" : [
        {
            "byteLength" : 349412,
            "uri" : "data:application/octet-stream;base64,"
        }
    ]
}
