{
    "asset" : {
        "generator" : "Khronos glTF Blender I/O v3.3.32",
        "version" : "2.0"
    },
    "scene" : 0,
    "scenes" : [
        {
            "name" : "Scene",
            "nodes" : [
                0
            ]
        }
    ],
    "nodes" : [
        {
            "mesh" : 0,
            "name" : "3D.Black.Rook.001",
            "scale" : [
                0.6069589257240295,
                0.7084195017814636,
                0.6069589257240295
            ],
            "translation" : [
                -8.701993942260742,
                -0.00014851405285298824,
                -8.719696044921875
            ]
        }
    ],
    "materials" : [
        {
            "doubleSided" : true,
            "name" : "Outside Black",
            "pbrMetallicRoughness" : {}
        },
        {
            "doubleSided" : true,
            "name" : "Inside Black",
            "pbrMetallicRoughness" : {}
        }
    ],
    "meshes" : [
        {
            "name" : "BezierCurve.015",
            "primitives" : [
                {
                    "attributes" : {
                        "POSITION" : 0,
                        "NORMAL" : 1,
                        "TEXCOORD_0" : 2
                    },
                    "indices" : 3,
                    "material" : 0
                },
                {
                    "attributes" : {
                        "POSITION" : 4,
                        "NORMAL" : 5,
                        "TEXCOORD_0" : 6
                    },
                    "indices" : 7,
                    "material" : 1
                }
            ]
        }
    ],
    "accessors" : [
        {
            "bufferView" : 0,
            "componentType" : 5126,
            "count" : 2620,
            "max" : [
                1.2588911056518555,
                5.180443286895752,
                1.4203364849090576
            ],
            "min" : [
                -1.270359754562378,
                -0.015497641637921333,
                -1.522883653640747
            ],
            "type" : "VEC3"
        },
        {
            "bufferView" : 1,
            "componentType" : 5126,
            "count" : 2620,
            "type" : "VEC3"
        },
        {
            "bufferView" : 2,
            "componentType" : 5126,
            "count" : 2620,
            "type" : "VEC2"
        },
        {
            "bufferView" : 3,
            "componentType" : 5123,
            "count" : 10500,
            "type" : "SCALAR"
        },
        {
            "bufferView" : 4,
            "componentType" : 5126,
            "count" : 972,
            "max" : [
                1.2588911056518555,
                5.180443286895752,
                1.4203364849090576
            ],
            "min" : [
                -1.270359754562378,
                -0.015497641637921333,
                -1.522883653640747
            ],
            "type" : "VEC3"
        },
        {
            "bufferView" : 5,
            "componentType" : 5126,
            "count" : 972,
            "type" : "VEC3"
        },
        {
            "bufferView" : 6,
            "componentType" : 5126,
            "count" : 972,
            "type" : "VEC2"
        },
        {
            "bufferView" : 7,
            "componentType" : 5123,
            "count" : 2640,
            "type" : "SCALAR"
        }
    ],
    "bufferViews" : [
        {
            "buffer" : 0,
            "byteLength" : 31440,
            "byteOffset" : 0,
            "target" : 34962
        },
        {
            "buffer" : 0,
            "byteLength" : 31440,
            "byteOffset" : 31440,
            "target" : 34962
        },
        {
            "buffer" : 0,
            "byteLength" : 20960,
            "byteOffset" : 62880,
            "target" : 34962
        },
        {
            "buffer" : 0,
            "byteLength" : 21000,
            "byteOffset" : 83840,
            "target" : 34963
        },
        {
            "buffer" : 0,
            "byteLength" : 11664,
            "byteOffset" : 104840,
            "target" : 34962
        },
        {
            "buffer" : 0,
            "byteLength" : 11664,
            "byteOffset" : 116504,
            "target" : 34962
        },
        {
            "buffer" : 0,
            "byteLength" : 7776,
            "byteOffset" : 128168,
            "target" : 34962
        },
        {
            "buffer" : 0,
            "byteLength" : 5280,
            "byteOffset" : 135944,
            "target" : 34963
        }
    ],
    "buffers" : [
        {
            "byteLength" : 141224,
            "uri" : "data:application/octet-stream;base64,"
        }
    ]
}
